<svg width="72" height="44" viewBox="0 0 72 44" fill="none" xmlns="http://www.w3.org/2000/svg">
<g clip-path="url(#clip0)">
<path fill-rule="evenodd" clip-rule="evenodd" d="M60.6316 14.4138H59.8737V0.758621H18.1895C14.9798 0.758621 12.0013 3.20907 12.0013 6.36493V14.8309H11.357V6.36493C11.357 2.85252 14.6251 0 18.1895 0H60.6316V14.4138ZM53.8105 44H11.357L11.3684 29.5862H12.1263V43.2414H53.8105C55.4006 43.1848 56.9102 42.5273 58.0352 41.4011C59.1602 40.275 59.8172 38.764 59.8737 37.1724V28.8276H60.6316V37.1724C60.5525 38.9577 59.8084 40.6487 58.546 41.9123C57.2835 43.176 55.5942 43.9208 53.8105 44ZM9.81778 16.5074H8.72717C7.95717 16.4632 7.19305 16.6653 6.54517 17.0842C5.89729 16.6653 5.13319 16.4632 4.36319 16.5074H3.27258C1.09086 16.5074 0 17.5798 0 19.7241V27.2422H2.18198V19.7241C2.16249 19.5771 2.17749 19.4276 2.22576 19.2874C2.27403 19.1472 2.35426 19.02 2.46008 18.9163C2.56591 18.8125 2.69441 18.735 2.83544 18.6896C2.97647 18.6441 3.12614 18.6319 3.27258 18.6544H4.36319C4.50967 18.6319 4.65937 18.6441 4.80042 18.6896C4.94148 18.735 5.07002 18.8125 5.1759 18.9163C5.28178 19.02 5.36209 19.1472 5.41045 19.2874C5.45882 19.4276 5.47391 19.5771 5.45456 19.7241V27.2422H7.63654V19.7241C7.61706 19.5771 7.63205 19.4276 7.68032 19.2874C7.72859 19.1472 7.80882 19.02 7.91464 18.9163C8.02047 18.8125 8.14898 18.735 8.29001 18.6896C8.43104 18.6441 8.58072 18.6319 8.72717 18.6544H9.81778C9.96425 18.6319 10.1139 18.6441 10.255 18.6896C10.396 18.735 10.5246 18.8125 10.6305 18.9163C10.7363 19.02 10.8167 19.1472 10.865 19.2874C10.9134 19.4276 10.9285 19.5771 10.9091 19.7241V27.2422H13.0911V19.7241C13.0911 17.5772 12 16.5049 9.81778 16.5074ZM15.2746 27.2422H17.4566V16.5074H15.2746V27.2422ZM15.2746 12.2139V14.3608H17.4566V12.2139H15.2746ZM25.0931 16.5074H22.9112C20.7294 16.5074 19.6386 17.5798 19.6386 19.7241V27.2422H21.8205V19.7241C21.8011 19.5771 21.8161 19.4276 21.8643 19.2874C21.9126 19.1472 21.9928 19.02 22.0986 18.9163C22.2045 18.8125 22.333 18.735 22.474 18.6896C22.615 18.6441 22.7647 18.6319 22.9112 18.6544H25.0931C25.2396 18.6319 25.3893 18.6441 25.5303 18.6896C25.6713 18.735 25.7998 18.8125 25.9057 18.9163C26.0115 19.02 26.0917 19.1472 26.14 19.2874C26.1882 19.4276 26.2032 19.5771 26.1837 19.7241V27.2422H28.3657V19.7241C28.3642 17.5772 27.2726 16.5049 25.0909 16.5074H25.0931ZM37.0929 16.5074V24.0255C37.1124 24.1725 37.0974 24.322 37.0491 24.4622C37.0008 24.6024 36.9206 24.7296 36.8148 24.8333C36.709 24.9371 36.5804 25.015 36.4394 25.0604C36.2984 25.1059 36.1487 25.1177 36.0023 25.0952H33.8203C33.6739 25.1177 33.5242 25.1059 33.3832 25.0604C33.2421 25.015 33.1136 24.9371 33.0078 24.8333C32.902 24.7296 32.8217 24.6024 32.7734 24.4622C32.7252 24.322 32.7102 24.1725 32.7297 24.0255V16.5074H30.5431V24.0255C30.5431 26.1724 31.634 27.2447 33.8157 27.2422H36C38.1822 27.2422 39.2731 26.1698 39.2726 24.0255V16.5074H37.0906H37.0929ZM46.9114 20.8013H44.7294C44.445 20.8013 44.1722 20.6881 43.9711 20.4868C43.77 20.2855 43.657 20.0125 43.657 19.7278C43.657 19.4431 43.77 19.1702 43.9711 18.9689C44.1722 18.7675 44.445 18.6544 44.7294 18.6544H49.0934V16.5074H44.7294C42.5477 16.5074 41.4569 17.5798 41.4569 19.7241C41.4569 21.8786 42.5475 22.9483 44.7294 22.9483H46.9114C47.1958 22.9483 47.4686 23.0615 47.6697 23.2628C47.8709 23.4641 47.9838 23.7371 47.9838 24.0218C47.9838 24.3064 47.8709 24.5794 47.6697 24.7807C47.4686 24.9821 47.1958 25.0952 46.9114 25.0952H41.4546V27.2422H46.9114C49.0936 27.2422 50.1845 26.1698 50.184 24.0255C50.1835 21.8811 49.0919 20.8064 46.9091 20.8013H46.9114ZM55.6386 27.2422C53.4568 27.2422 52.366 26.1698 52.366 24.0255V22.9483H54.548V24.0255C54.5285 24.1725 54.5435 24.322 54.5917 24.4622C54.64 24.6024 54.7202 24.7296 54.826 24.8333C54.9319 24.9371 55.0604 25.015 55.2014 25.0604C55.3424 25.1059 55.4921 25.1177 55.6386 25.0952H57.8206C57.967 25.1177 58.1167 25.1059 58.2577 25.0604C58.3987 25.015 58.5273 24.9371 58.6331 24.8333C58.7389 24.7296 58.8191 24.6024 58.8674 24.4622C58.9157 24.322 58.9306 24.1725 58.9111 24.0255V22.4097C58.9306 22.2627 58.9157 22.1132 58.8674 21.973C58.8191 21.8327 58.7389 21.7056 58.6331 21.6018C58.5273 21.498 58.3987 21.4202 58.2577 21.3747C58.1167 21.3293 57.967 21.3174 57.8206 21.3399H55.6386V19.193H57.8206C57.9676 19.2152 58.1179 19.2031 58.2593 19.157C58.4008 19.111 58.5296 19.0327 58.6354 18.9281C58.7413 18.8235 58.8214 18.6957 58.8692 18.5547C58.9171 18.4137 58.9314 18.2633 58.9111 18.1158V16.5074C58.9308 16.36 58.916 16.2102 58.8679 16.0696C58.8198 15.9289 58.7398 15.8014 58.6341 15.6969C58.5283 15.5925 58.3998 15.5139 58.2586 15.4676C58.1175 15.4214 57.9675 15.4086 57.8206 15.4302H55.6386C55.4916 15.4086 55.3417 15.4214 55.2005 15.4676C55.0593 15.5139 54.9308 15.5925 54.8251 15.6969C54.7193 15.8014 54.6393 15.9289 54.5912 16.0696C54.5431 16.2102 54.5283 16.36 54.548 16.5074V17.5772H52.366V16.5074C52.366 14.3605 53.4568 13.2858 55.6386 13.2833H57.8206C60.0028 13.2833 61.0937 14.358 61.0931 16.5074V18.1158C60.7077 18.7654 60.5042 19.5071 60.5042 20.2627C60.5042 21.0183 60.7077 21.76 61.0931 22.4097V24.0255C61.0931 26.1724 60.0023 27.2447 57.8206 27.2422H55.6386ZM66.5477 27.2422C64.366 27.2422 63.2751 26.1698 63.2751 24.0255V16.5074C63.2751 14.3605 64.366 13.2858 66.5477 13.2833H68.7297C70.9119 13.2833 72.0028 14.358 72.0023 16.5074V24.0255C72.0023 26.1724 70.9114 27.2447 68.7297 27.2422H66.5432H66.5477ZM65.4571 24.0255C65.4376 24.1725 65.4526 24.322 65.5009 24.4622C65.5491 24.6024 65.6294 24.7296 65.7352 24.8333C65.841 24.9371 65.9695 25.015 66.1105 25.0604C66.2516 25.1059 66.4013 25.1177 66.5477 25.0952H68.7297C68.8761 25.1177 69.0258 25.1059 69.1668 25.0604C69.3079 25.015 69.4364 24.9371 69.5422 24.8333C69.648 24.7296 69.7282 24.6024 69.7765 24.4622C69.8248 24.322 69.8398 24.1725 69.8203 24.0255V16.5074C69.84 16.36 69.8251 16.2102 69.7771 16.0696C69.729 15.9289 69.6489 15.8014 69.5432 15.6969C69.4375 15.5925 69.309 15.5139 69.1678 15.4676C69.0266 15.4214 68.8766 15.4086 68.7297 15.4302H66.5432C66.3962 15.4086 66.2462 15.4214 66.1051 15.4676C65.9639 15.5139 65.8354 15.5925 65.7297 15.6969C65.6239 15.8014 65.5439 15.9289 65.4958 16.0696C65.4477 16.2102 65.4329 16.36 65.4526 16.5074V24.0255H65.4571ZM30.8213 5.65187L29.2494 9.72538H29.0274L26.9447 4.27095H27.1258L29.1418 9.53573L30.7334 5.40888H30.9145L32.5061 9.53573L34.5153 4.27095H34.6964L32.6137 9.72538H32.3917L30.8213 5.65187ZM35.8408 4.27095H39.0316V4.43023H36.0076V6.91093H38.357V7.07799H36.0076V9.55869H39.0316V9.72538H35.8401V4.27095H35.8408ZM40.4367 4.27095H42.7862C42.9731 4.26766 43.1588 4.30241 43.332 4.37281C43.5052 4.44321 43.6625 4.54783 43.7942 4.68063C43.9282 4.80712 44.0344 4.96018 44.1062 5.12995C44.1779 5.29973 44.2136 5.48273 44.211 5.66706C44.2144 5.85374 44.1791 6.03886 44.1074 6.21121C44.0356 6.38355 43.929 6.53925 43.7942 6.66831C43.6711 6.79698 43.522 6.89796 43.3569 6.96427C43.5863 7.02869 43.7953 7.15133 43.9632 7.32062C44.0953 7.45097 44.2001 7.60646 44.2716 7.77771C44.3432 7.94897 44.38 8.13253 44.38 8.31816C44.38 8.50379 44.3432 8.68772 44.2716 8.85897C44.2001 9.03022 44.0953 9.18535 43.9632 9.3157C43.8316 9.44851 43.6746 9.55348 43.5015 9.62389C43.3284 9.69429 43.1428 9.7287 42.9559 9.72538H40.4337V4.27095H40.4367ZM40.6042 4.43023V6.91093H42.7884C42.9532 6.91338 43.1167 6.88239 43.2691 6.81981C43.4215 6.75722 43.5597 6.66434 43.6752 6.54681C43.792 6.43281 43.8849 6.2965 43.9483 6.14601C44.0117 5.99553 44.0444 5.83408 44.0444 5.67076C44.0444 5.50745 44.0117 5.34563 43.9483 5.19514C43.8849 5.04466 43.792 4.90835 43.6752 4.79435C43.5597 4.67681 43.4215 4.58394 43.2691 4.52135C43.1167 4.45876 42.9532 4.42778 42.7884 4.43023H40.6042ZM40.6042 7.07799V9.55869H42.9537C43.1184 9.56114 43.2819 9.53016 43.4343 9.46757C43.5867 9.40498 43.7249 9.31211 43.8404 9.19457C43.9574 9.08068 44.0505 8.94427 44.114 8.79378C44.1775 8.64328 44.2102 8.48153 44.2102 8.31816C44.2102 8.15478 44.1775 7.99304 44.114 7.84254C44.0505 7.69204 43.9574 7.55601 43.8404 7.44211C43.7249 7.32458 43.5867 7.2317 43.4343 7.16911C43.2819 7.10653 43.1184 7.07555 42.9537 7.07799H40.6042ZM25.4206 39.1297C25.0562 39.4717 24.5825 39.6733 24.0836 39.6987C24.0207 39.6987 23.9578 39.7061 23.8957 39.7061C23.3173 39.7195 22.7522 39.5321 22.2965 39.1753C22.067 38.9758 21.8716 38.7401 21.7182 38.4774L21.8698 38.4015C22.0076 38.648 22.1901 38.8667 22.4079 39.0464C22.8272 39.3748 23.3466 39.5489 23.879 39.5394C23.9418 39.5407 24.0045 39.5379 24.067 39.5316C24.5267 39.5116 24.9636 39.3257 25.297 39.0082C25.4114 38.8994 25.503 38.769 25.5665 38.6245C25.63 38.4799 25.6641 38.3242 25.6669 38.1663C25.6655 37.9655 25.6097 37.7688 25.5054 37.5973C25.4281 37.4644 25.3243 37.3486 25.2006 37.2572C25.077 37.1659 24.9359 37.1008 24.7862 37.0661L23.1673 36.6338C22.7925 36.5502 22.4647 36.3245 22.2525 36.0041C22.1164 35.8083 22.0439 35.5752 22.0449 35.3366C22.0454 35.2033 22.0635 35.0707 22.0987 34.9421C22.1476 34.7519 22.2348 34.5736 22.355 34.4183C22.4751 34.2631 22.6257 34.1343 22.7975 34.0394C23.0204 33.9073 23.2711 33.8291 23.5296 33.8116C23.6153 33.804 23.6994 33.7964 23.785 33.7964C24.1976 33.7965 24.6039 33.8982 24.9681 34.0924C25.2264 34.2414 25.4572 34.4338 25.6502 34.6613L25.5092 34.7525C25.333 34.5448 25.1212 34.37 24.884 34.2365C24.5462 34.0585 24.1705 33.9649 23.7888 33.9635C23.7085 33.9635 23.6251 33.9711 23.5402 33.9786C23.3101 33.9958 23.087 34.0659 22.8884 34.1835C22.7348 34.2674 22.6 34.3822 22.4925 34.5206C22.3851 34.6589 22.3073 34.8179 22.2639 34.9877C22.2292 35.1008 22.2108 35.2183 22.2093 35.3366C22.2081 35.5465 22.2743 35.7513 22.3981 35.9208C22.5891 36.2016 22.8795 36.3995 23.2105 36.4745L24.837 36.8994C25.1809 36.9873 25.4759 37.2084 25.657 37.5139C25.7744 37.7114 25.8369 37.9365 25.8381 38.1663C25.8365 38.2869 25.8187 38.4067 25.7851 38.5226C25.7269 38.7572 25.6031 38.9705 25.4281 39.1371L25.4206 39.1297ZM29.7754 34.009V34.1757H28.0952V39.4635H27.9277V34.1757H26.2474V34.009H29.7754ZM30.675 37.3165V34.009H30.8441V37.3165C30.8403 37.5786 30.8909 37.8388 30.9927 38.0803C31.0944 38.3219 31.2451 38.5397 31.4352 38.72C31.815 39.0943 32.3267 39.3042 32.8597 39.3042C33.3927 39.3042 33.9043 39.0943 34.2841 38.72C34.4742 38.5397 34.6249 38.3219 34.7267 38.0803C34.8284 37.8388 34.879 37.5786 34.8753 37.3165V34.009H35.0435V37.3165C35.0468 37.6009 34.9918 37.8829 34.8819 38.1451C34.772 38.4074 34.6096 38.6446 34.4046 38.8415C33.989 39.2407 33.4353 39.4635 32.8593 39.4635C32.2833 39.4635 31.7296 39.2407 31.3139 38.8415C31.1083 38.645 30.9451 38.4082 30.8347 38.1459C30.7243 37.8836 30.6689 37.6011 30.672 37.3165H30.675ZM36.6154 34.009H38.7921C39.1557 34.002 39.5167 34.0696 39.8531 34.2079C40.1894 34.3463 40.4938 34.5524 40.7474 34.8132C41.0048 35.0637 41.2093 35.3631 41.349 35.6941C41.4886 36.025 41.5606 36.3809 41.5606 36.7401C41.5606 37.0994 41.4886 37.4549 41.349 37.7858C41.2093 38.1168 41.0048 38.4166 40.7474 38.6671C40.4935 38.925 40.1898 39.1284 39.8548 39.2653C39.5199 39.4022 39.1607 39.4697 38.7989 39.4635V39.4709H36.6154V34.009ZM36.7837 34.1757V39.3042H38.7921C39.1344 39.309 39.4741 39.2442 39.7906 39.1138C40.1072 38.9834 40.394 38.7902 40.6338 38.5456C40.8782 38.3136 41.0718 38.0333 41.2022 37.7225C41.3327 37.4117 41.3972 37.0772 41.3917 36.7401C41.3958 36.401 41.3307 36.0646 41.2004 35.7515C41.0701 35.4384 40.8773 35.155 40.6338 34.9191C40.3922 34.6781 40.1047 34.4883 39.7883 34.3606C39.472 34.2328 39.1332 34.1698 38.7921 34.1757H36.7837ZM43.2258 34.009V39.4635H43.056V34.009H43.2242H43.2258ZM49.6489 34.6917C49.9255 34.9538 50.1447 35.2706 50.2926 35.6218C50.4406 35.9731 50.514 36.3512 50.5084 36.7324C50.5141 37.1158 50.4408 37.4962 50.2929 37.8499C50.145 38.2037 49.9257 38.5231 49.6489 38.7882C49.091 39.3283 48.3454 39.6301 47.5693 39.6301C46.7932 39.6301 46.0475 39.3283 45.4896 38.7882C45.2127 38.5232 44.9933 38.204 44.8453 37.8503C44.6973 37.4965 44.6238 37.1158 44.6294 36.7324C44.6239 36.3511 44.6975 35.9731 44.8455 35.6218C44.9936 35.2706 45.2129 34.9538 45.4896 34.6917C46.045 34.1475 46.7913 33.8427 47.5685 33.8427C48.3457 33.8427 49.092 34.1475 49.6474 34.6917H49.6489ZM47.5731 34.009C47.2085 34.0025 46.8463 34.0704 46.5088 34.2087C46.1713 34.3469 45.8655 34.5527 45.6101 34.8132C45.353 35.0638 45.1486 35.3631 45.0091 35.6941C44.8695 36.025 44.7976 36.3809 44.7976 36.7401C44.7976 37.0994 44.8695 37.4549 45.0091 37.7858C45.1486 38.1168 45.353 38.4165 45.6101 38.6671C46.1345 39.1778 46.8373 39.4635 47.5689 39.4635C48.3005 39.4635 49.0033 39.1778 49.5277 38.6671C49.785 38.4166 49.9895 38.1168 50.1292 37.7858C50.2689 37.4549 50.3408 37.0994 50.3408 36.7401C50.3408 36.3809 50.2689 36.025 50.1292 35.6941C49.9895 35.3631 49.785 35.0637 49.5277 34.8132C49.2734 34.553 48.9688 34.3473 48.6325 34.2091C48.2961 34.0708 47.9351 34.0028 47.5715 34.009H47.5731Z" fill="white" fill-opacity="0.5"/>
</g>
<defs>
<clipPath id="clip0">
<rect width="72" height="44" fill="white"/>
</clipPath>
</defs>
</svg>
